<svg xmlns="http://www.w3.org/2000/svg" viewBox="0 0 1100 433" font-family="Avenir Next, Nunito, Segoe UI, Helvetica, Arial, sans-serif">
  <defs>
    <marker id="ha" markerWidth="14" markerHeight="14" refX="11" refY="5" orient="auto" markerUnits="userSpaceOnUse">
      <path d="M1.5 1 L10 5 L1.5 9" fill="none" stroke="#a1a099" stroke-width="1.9" stroke-linecap="round" stroke-linejoin="round"/>
    </marker>
    <marker id="Ha" markerWidth="19" markerHeight="19" refX="13" refY="6.5" orient="auto" markerUnits="userSpaceOnUse">
      <path d="M2 1.5 L12.5 6.5 L2 11.5" fill="none" stroke="#a1a099" stroke-width="3" stroke-linecap="round" stroke-linejoin="round"/>
    </marker>
    <marker id="hg" markerWidth="14" markerHeight="14" refX="11" refY="5" orient="auto" markerUnits="userSpaceOnUse">
      <path d="M1.5 1 L10 5 L1.5 9" fill="none" stroke="#5a912f" stroke-width="1.9" stroke-linecap="round" stroke-linejoin="round"/>
    </marker>
    <marker id="Hg" markerWidth="19" markerHeight="19" refX="13" refY="6.5" orient="auto" markerUnits="userSpaceOnUse">
      <path d="M2 1.5 L12.5 6.5 L2 11.5" fill="none" stroke="#5a912f" stroke-width="3" stroke-linecap="round" stroke-linejoin="round"/>
    </marker>
    <marker id="hp" markerWidth="14" markerHeight="14" refX="11" refY="5" orient="auto" markerUnits="userSpaceOnUse">
      <path d="M1.5 1 L10 5 L1.5 9" fill="none" stroke="#5d579d" stroke-width="1.9" stroke-linecap="round" stroke-linejoin="round"/>
    </marker>
    <marker id="Hp" markerWidth="19" markerHeight="19" refX="13" refY="6.5" orient="auto" markerUnits="userSpaceOnUse">
      <path d="M2 1.5 L12.5 6.5 L2 11.5" fill="none" stroke="#5d579d" stroke-width="3" stroke-linecap="round" stroke-linejoin="round"/>
    </marker>
    <marker id="hc" markerWidth="14" markerHeight="14" refX="11" refY="5" orient="auto" markerUnits="userSpaceOnUse">
      <path d="M1.5 1 L10 5 L1.5 9" fill="none" stroke="#ad5130" stroke-width="1.9" stroke-linecap="round" stroke-linejoin="round"/>
    </marker>
    <marker id="Hc" markerWidth="19" markerHeight="19" refX="13" refY="6.5" orient="auto" markerUnits="userSpaceOnUse">
      <path d="M2 1.5 L12.5 6.5 L2 11.5" fill="none" stroke="#ad5130" stroke-width="3" stroke-linecap="round" stroke-linejoin="round"/>
    </marker>
    <marker id="hk" markerWidth="14" markerHeight="14" refX="11" refY="5" orient="auto" markerUnits="userSpaceOnUse">
      <path d="M1.5 1 L10 5 L1.5 9" fill="none" stroke="#2b2b29" stroke-width="1.9" stroke-linecap="round" stroke-linejoin="round"/>
    </marker>
    <marker id="Hk" markerWidth="19" markerHeight="19" refX="13" refY="6.5" orient="auto" markerUnits="userSpaceOnUse">
      <path d="M2 1.5 L12.5 6.5 L2 11.5" fill="none" stroke="#2b2b29" stroke-width="3" stroke-linecap="round" stroke-linejoin="round"/>
    </marker>
  </defs>
  <rect width="1100" height="433" fill="#fff"/>
  <rect x="70" y="307" width="80" height="66" rx="33" fill="#fbf0ed" stroke="#f0c5b6" stroke-width="2"/>
  <text x="110" y="349" text-anchor="middle" fill="#ad5130" font-size="28" font-weight="600">job</text>
  <circle cx="166" cy="340" r="9" fill="#2b2b29"/>
  <rect x="384" y="262" width="141" height="66" fill="#eff5ea" stroke="#b8d7a6" stroke-width="2"/>
  <rect x="376" y="271" width="141" height="66" fill="#eff5ea" stroke="#b8d7a6" stroke-width="2"/>
  <rect x="366" y="280" width="141" height="66" fill="#eff5ea" stroke="#b8d7a6" stroke-width="2"/>
  <rect x="358" y="289" width="141" height="66" fill="#eff5ea" stroke="#b8d7a6" stroke-width="2"/>
  <rect x="348" y="298" width="141" height="66" fill="#eff5ea" stroke="#b8d7a6" stroke-width="2"/>
  <rect x="340" y="307" width="141" height="66" fill="#eff5ea" stroke="#b8d7a6" stroke-width="2"/>
  <text x="410" y="349" text-anchor="middle" fill="#5a912f" font-size="28" font-weight="600">worker</text>
  <path d="M166 340 C186 340, 320 340, 340 340" fill="none" stroke="#a1a099" stroke-width="2" marker-end="url(#ha)"/>
  <text x="268" y="288" text-anchor="middle" fill="#2b2b29" font-size="24">same rough draft</text>
  <rect x="548" y="307" width="105" height="66" fill="#f3f2f9" stroke="#a9a3c9" stroke-width="2"/>
  <text x="600" y="349" text-anchor="middle" fill="#5d579d" font-size="28" font-weight="600">best</text>
  <path d="M494 340 C514 340, 518 340, 538 340" fill="none" stroke="#a1a099" stroke-width="2" marker-end="url(#ha)"/>
  <text x="521" y="288" text-anchor="middle" fill="#2b2b29" font-size="24">best of N</text>
  <rect x="680" y="307" width="141" height="66" rx="33" fill="#fbf0ed" stroke="#f0c5b6" stroke-width="2"/>
  <text x="750" y="349" text-anchor="middle" fill="#ad5130" font-size="28" font-weight="600">answer</text>
  <path d="M662 340 C682 340, 650 340, 670 340" fill="none" stroke="#a1a099" stroke-width="2" marker-end="url(#ha)"/>
  <text x="683" y="288" text-anchor="middle" fill="#2b2b29" font-size="24">a single answer</text>
</svg>
