<svg xmlns="http://www.w3.org/2000/svg" viewBox="0 0 1256 450" font-family="Avenir Next, Nunito, Segoe UI, Helvetica, Arial, sans-serif">
  <defs>
    <marker id="ha" markerWidth="13.3" markerHeight="13.3" refX="11" refY="7.0" orient="auto" markerUnits="userSpaceOnUse"><path d="M2 2.2 L11.5 7.0 L2 11.8" fill="none" stroke="#a1a099" stroke-width="1.9" stroke-linecap="round" stroke-linejoin="round"/></marker>
    <marker id="Ha" markerWidth="18.1" markerHeight="18.1" refX="15" refY="9.5" orient="auto" markerUnits="userSpaceOnUse"><path d="M2 3.0 L15.6 9.5 L2 16.0" fill="none" stroke="#a1a099" stroke-width="3.0" stroke-linecap="round" stroke-linejoin="round"/></marker>
    <marker id="hg" markerWidth="13.3" markerHeight="13.3" refX="11" refY="7.0" orient="auto" markerUnits="userSpaceOnUse"><path d="M2 2.2 L11.5 7.0 L2 11.8" fill="none" stroke="#5a912f" stroke-width="1.9" stroke-linecap="round" stroke-linejoin="round"/></marker>
    <marker id="Hg" markerWidth="18.1" markerHeight="18.1" refX="15" refY="9.5" orient="auto" markerUnits="userSpaceOnUse"><path d="M2 3.0 L15.6 9.5 L2 16.0" fill="none" stroke="#5a912f" stroke-width="3.0" stroke-linecap="round" stroke-linejoin="round"/></marker>
    <marker id="hp" markerWidth="13.3" markerHeight="13.3" refX="11" refY="7.0" orient="auto" markerUnits="userSpaceOnUse"><path d="M2 2.2 L11.5 7.0 L2 11.8" fill="none" stroke="#5d579d" stroke-width="1.9" stroke-linecap="round" stroke-linejoin="round"/></marker>
    <marker id="Hp" markerWidth="18.1" markerHeight="18.1" refX="15" refY="9.5" orient="auto" markerUnits="userSpaceOnUse"><path d="M2 3.0 L15.6 9.5 L2 16.0" fill="none" stroke="#5d579d" stroke-width="3.0" stroke-linecap="round" stroke-linejoin="round"/></marker>
    <marker id="hc" markerWidth="13.3" markerHeight="13.3" refX="11" refY="7.0" orient="auto" markerUnits="userSpaceOnUse"><path d="M2 2.2 L11.5 7.0 L2 11.8" fill="none" stroke="#ad5130" stroke-width="1.9" stroke-linecap="round" stroke-linejoin="round"/></marker>
    <marker id="Hc" markerWidth="18.1" markerHeight="18.1" refX="15" refY="9.5" orient="auto" markerUnits="userSpaceOnUse"><path d="M2 3.0 L15.6 9.5 L2 16.0" fill="none" stroke="#ad5130" stroke-width="3.0" stroke-linecap="round" stroke-linejoin="round"/></marker>
    <marker id="hk" markerWidth="13.3" markerHeight="13.3" refX="11" refY="7.0" orient="auto" markerUnits="userSpaceOnUse"><path d="M2 2.2 L11.5 7.0 L2 11.8" fill="none" stroke="#2b2b29" stroke-width="1.9" stroke-linecap="round" stroke-linejoin="round"/></marker>
    <marker id="Hk" markerWidth="18.1" markerHeight="18.1" refX="15" refY="9.5" orient="auto" markerUnits="userSpaceOnUse"><path d="M2 3.0 L15.6 9.5 L2 16.0" fill="none" stroke="#2b2b29" stroke-width="3.0" stroke-linecap="round" stroke-linejoin="round"/></marker>
  </defs>
  <rect width="1256" height="450" fill="#fff"/>
  <text x="70" y="34" text-anchor="start" fill="#2b2b29" font-size="23" font-weight="700">Pheromone Router — learn which shape wins, with decay</text>
  <text x="470" y="56" text-anchor="middle" fill="#2b2b29" font-size="23">learned weights</text>
  <text x="280" y="399" text-anchor="end" fill="#2b2b29" font-size="23">verified → reinforce, others decay</text>
  <path d="M 120 210 C 208 210, 208 210, 296 210" fill="none" stroke="#a1a099" stroke-width="2" marker-end="url(#ha)"/>
  <path d="M 440 210 C 535 210, 535 92, 630 92" fill="none" stroke="#a1a099" stroke-width="2" marker-end="url(#ha)"/>
  <path d="M 440 210 C 531 210, 531 210, 622 210" fill="none" stroke="#a1a099" stroke-width="2" marker-end="url(#ha)"/>
  <path d="M 440 210 C 539 210, 539 328, 638 328" fill="none" stroke="#a1a099" stroke-width="2" marker-end="url(#ha)"/>
  <path d="M 792 92 C 903 92, 903 210, 1015 210" fill="none" stroke="#a1a099" stroke-width="2" marker-end="url(#ha)"/>
  <path d="M 800 210 C 907 210, 907 210, 1015 210" fill="none" stroke="#a1a099" stroke-width="2" marker-end="url(#ha)"/>
  <path d="M 783 328 C 899 328, 899 210, 1015 210" fill="none" stroke="#a1a099" stroke-width="2" marker-end="url(#ha)"/>
  <path d="M 1160 210 C 1450 210, 1450 417, 1305 417 C 5 417, 5 210, 296 210" fill="none" stroke="#a1a099" stroke-width="2" stroke-dasharray="7 7" marker-end="url(#ha)"/>
  <rect x="20" y="177" width="100" height="66" rx="33" fill="#fbf0ed" stroke="#f0c5b6" stroke-width="2"/>
  <text x="70" y="220" text-anchor="middle" fill="#ad5130" font-size="28" font-weight="600">job</text>
  <rect x="296" y="177" width="145" height="66" rx="0" fill="#f3f2f9" stroke="#a9a3c9" stroke-width="2"/>
  <text x="368" y="220" text-anchor="middle" fill="#5d579d" font-size="28" font-weight="600">choose</text>
  <text x="368" y="279" text-anchor="middle" fill="#2b2b29" font-size="21">learned weights</text>
  <rect x="630" y="59" width="162" height="66" rx="0" fill="#eff5ea" stroke="#b8d7a6" stroke-width="2"/>
  <text x="711" y="102" text-anchor="middle" fill="#5a912f" font-size="28" font-weight="600">1 model</text>
  <rect x="622" y="177" width="178" height="66" rx="0" fill="#eff5ea" stroke="#b8d7a6" stroke-width="2"/>
  <text x="711" y="220" text-anchor="middle" fill="#5a912f" font-size="28" font-weight="600">N models</text>
  <rect x="638" y="295" width="145" height="66" rx="0" fill="#eff5ea" stroke="#b8d7a6" stroke-width="2"/>
  <text x="711" y="338" text-anchor="middle" fill="#5a912f" font-size="28" font-weight="600">debate</text>
  <rect x="1015" y="177" width="145" height="66" rx="33" fill="#fbf0ed" stroke="#f0c5b6" stroke-width="2"/>
  <text x="1087" y="220" text-anchor="middle" fill="#ad5130" font-size="28" font-weight="600">answer</text>
</svg>