<svg xmlns="http://www.w3.org/2000/svg" viewBox="0 0 1446 450" font-family="Avenir Next, Nunito, Segoe UI, Helvetica, Arial, sans-serif" role="img" aria-labelledby="t">
  <title id="t">Power Budget</title>
  <defs>
    <marker id="ha" markerWidth="13.3" markerHeight="13.3" refX="11" refY="7.0" orient="auto" markerUnits="userSpaceOnUse"><path d="M2 2.2 L11.5 7.0 L2 11.8" fill="none" stroke="#a1a099" stroke-width="1.9" stroke-linecap="round" stroke-linejoin="round"/></marker>
    <marker id="Ha" markerWidth="18.1" markerHeight="18.1" refX="15" refY="9.5" orient="auto" markerUnits="userSpaceOnUse"><path d="M2 3.0 L15.6 9.5 L2 16.0" fill="none" stroke="#a1a099" stroke-width="3.0" stroke-linecap="round" stroke-linejoin="round"/></marker>
    <marker id="hg" markerWidth="13.3" markerHeight="13.3" refX="11" refY="7.0" orient="auto" markerUnits="userSpaceOnUse"><path d="M2 2.2 L11.5 7.0 L2 11.8" fill="none" stroke="#5a912f" stroke-width="1.9" stroke-linecap="round" stroke-linejoin="round"/></marker>
    <marker id="Hg" markerWidth="18.1" markerHeight="18.1" refX="15" refY="9.5" orient="auto" markerUnits="userSpaceOnUse"><path d="M2 3.0 L15.6 9.5 L2 16.0" fill="none" stroke="#5a912f" stroke-width="3.0" stroke-linecap="round" stroke-linejoin="round"/></marker>
    <marker id="hp" markerWidth="13.3" markerHeight="13.3" refX="11" refY="7.0" orient="auto" markerUnits="userSpaceOnUse"><path d="M2 2.2 L11.5 7.0 L2 11.8" fill="none" stroke="#5d579d" stroke-width="1.9" stroke-linecap="round" stroke-linejoin="round"/></marker>
    <marker id="Hp" markerWidth="18.1" markerHeight="18.1" refX="15" refY="9.5" orient="auto" markerUnits="userSpaceOnUse"><path d="M2 3.0 L15.6 9.5 L2 16.0" fill="none" stroke="#5d579d" stroke-width="3.0" stroke-linecap="round" stroke-linejoin="round"/></marker>
    <marker id="hc" markerWidth="13.3" markerHeight="13.3" refX="11" refY="7.0" orient="auto" markerUnits="userSpaceOnUse"><path d="M2 2.2 L11.5 7.0 L2 11.8" fill="none" stroke="#ad5130" stroke-width="1.9" stroke-linecap="round" stroke-linejoin="round"/></marker>
    <marker id="Hc" markerWidth="18.1" markerHeight="18.1" refX="15" refY="9.5" orient="auto" markerUnits="userSpaceOnUse"><path d="M2 3.0 L15.6 9.5 L2 16.0" fill="none" stroke="#ad5130" stroke-width="3.0" stroke-linecap="round" stroke-linejoin="round"/></marker>
    <marker id="hk" markerWidth="13.3" markerHeight="13.3" refX="11" refY="7.0" orient="auto" markerUnits="userSpaceOnUse"><path d="M2 2.2 L11.5 7.0 L2 11.8" fill="none" stroke="#2b2b29" stroke-width="1.9" stroke-linecap="round" stroke-linejoin="round"/></marker>
    <marker id="Hk" markerWidth="18.1" markerHeight="18.1" refX="15" refY="9.5" orient="auto" markerUnits="userSpaceOnUse"><path d="M2 3.0 L15.6 9.5 L2 16.0" fill="none" stroke="#2b2b29" stroke-width="3.0" stroke-linecap="round" stroke-linejoin="round"/></marker>
  </defs>
  <rect width="1446" height="450" fill="#fff"/>
  <text x="1033" y="133" text-anchor="middle" fill="#2b2b29" font-size="23">inside</text>
  <text x="1001" y="192" text-anchor="middle" fill="#2b2b29" font-size="23">near limit</text>
  <text x="1026" y="251" text-anchor="middle" fill="#2b2b29" font-size="23">at limit</text>
  <path d="M 230 92 C 399 92, 399 210, 568 210" fill="none" stroke="#a1a099" stroke-width="2" marker-end="url(#ha)"/>
  <path d="M 353 328 C 461 328, 461 210, 568 210" fill="none" stroke="#a1a099" stroke-width="2" marker-end="url(#ha)"/>
  <path d="M 881 210 C 1033 210, 1033 92, 1185 92" fill="none" stroke="#a1a099" stroke-width="2" marker-end="url(#ha)"/>
  <path d="M 881 210 C 1001 210, 1001 210, 1121 210" fill="none" stroke="#a1a099" stroke-width="2" marker-end="url(#ha)"/>
  <path d="M 881 210 C 1026 210, 1026 328, 1171 328" fill="none" stroke="#a1a099" stroke-width="2" marker-end="url(#ha)"/>
  <rect x="130" y="59" width="100" height="66" rx="33" fill="#fbf0ed" stroke="#f0c5b6" stroke-width="2"/>
  <text x="180" y="102" text-anchor="middle" fill="#ad5130" font-size="28" font-weight="600">job</text>
  <rect x="7" y="295" width="346" height="66" rx="0" fill="#eff5ea" stroke="#b8d7a6" stroke-width="2"/>
  <text x="180" y="338" text-anchor="middle" fill="#5a912f" font-size="28" font-weight="600">power + heat limit</text>
  <rect x="568" y="177" width="313" height="66" rx="0" fill="#f3f2f9" stroke="#a9a3c9" stroke-width="2"/>
  <text x="724" y="220" text-anchor="middle" fill="#5d579d" font-size="28" font-weight="600">inside envelope?</text>
  <rect x="1185" y="59" width="100" height="66" rx="0" fill="#eff5ea" stroke="#b8d7a6" stroke-width="2"/>
  <text x="1235" y="102" text-anchor="middle" fill="#5a912f" font-size="28" font-weight="600">run</text>
  <rect x="1121" y="177" width="229" height="66" rx="0" fill="#eff5ea" stroke="#b8d7a6" stroke-width="2"/>
  <text x="1235" y="220" text-anchor="middle" fill="#5a912f" font-size="28" font-weight="600">reduce work</text>
  <rect x="1171" y="295" width="128" height="66" rx="33" fill="#fbf0ed" stroke="#f0c5b6" stroke-width="2"/>
  <text x="1235" y="338" text-anchor="middle" fill="#ad5130" font-size="28" font-weight="600">defer</text>
</svg>