<svg xmlns="http://www.w3.org/2000/svg" viewBox="0 0 1580 730" font-family="Avenir Next, Nunito, Segoe UI, Helvetica, Arial, sans-serif">
  <defs>
    <marker id="ha" markerWidth="14" markerHeight="14" refX="11" refY="5" orient="auto" markerUnits="userSpaceOnUse">
      <path d="M1.5 1 L10 5 L1.5 9" fill="none" stroke="#a1a099" stroke-width="1.9" stroke-linecap="round" stroke-linejoin="round"/>
    </marker>
    <marker id="Ha" markerWidth="19" markerHeight="19" refX="13" refY="6.5" orient="auto" markerUnits="userSpaceOnUse">
      <path d="M2 1.5 L12.5 6.5 L2 11.5" fill="none" stroke="#a1a099" stroke-width="3" stroke-linecap="round" stroke-linejoin="round"/>
    </marker>
    <marker id="hg" markerWidth="14" markerHeight="14" refX="11" refY="5" orient="auto" markerUnits="userSpaceOnUse">
      <path d="M1.5 1 L10 5 L1.5 9" fill="none" stroke="#5a912f" stroke-width="1.9" stroke-linecap="round" stroke-linejoin="round"/>
    </marker>
    <marker id="Hg" markerWidth="19" markerHeight="19" refX="13" refY="6.5" orient="auto" markerUnits="userSpaceOnUse">
      <path d="M2 1.5 L12.5 6.5 L2 11.5" fill="none" stroke="#5a912f" stroke-width="3" stroke-linecap="round" stroke-linejoin="round"/>
    </marker>
    <marker id="hp" markerWidth="14" markerHeight="14" refX="11" refY="5" orient="auto" markerUnits="userSpaceOnUse">
      <path d="M1.5 1 L10 5 L1.5 9" fill="none" stroke="#5d579d" stroke-width="1.9" stroke-linecap="round" stroke-linejoin="round"/>
    </marker>
    <marker id="Hp" markerWidth="19" markerHeight="19" refX="13" refY="6.5" orient="auto" markerUnits="userSpaceOnUse">
      <path d="M2 1.5 L12.5 6.5 L2 11.5" fill="none" stroke="#5d579d" stroke-width="3" stroke-linecap="round" stroke-linejoin="round"/>
    </marker>
    <marker id="hc" markerWidth="14" markerHeight="14" refX="11" refY="5" orient="auto" markerUnits="userSpaceOnUse">
      <path d="M1.5 1 L10 5 L1.5 9" fill="none" stroke="#ad5130" stroke-width="1.9" stroke-linecap="round" stroke-linejoin="round"/>
    </marker>
    <marker id="Hc" markerWidth="19" markerHeight="19" refX="13" refY="6.5" orient="auto" markerUnits="userSpaceOnUse">
      <path d="M2 1.5 L12.5 6.5 L2 11.5" fill="none" stroke="#ad5130" stroke-width="3" stroke-linecap="round" stroke-linejoin="round"/>
    </marker>
    <marker id="hk" markerWidth="14" markerHeight="14" refX="11" refY="5" orient="auto" markerUnits="userSpaceOnUse">
      <path d="M1.5 1 L10 5 L1.5 9" fill="none" stroke="#2b2b29" stroke-width="1.9" stroke-linecap="round" stroke-linejoin="round"/>
    </marker>
    <marker id="Hk" markerWidth="19" markerHeight="19" refX="13" refY="6.5" orient="auto" markerUnits="userSpaceOnUse">
      <path d="M2 1.5 L12.5 6.5 L2 11.5" fill="none" stroke="#2b2b29" stroke-width="3" stroke-linecap="round" stroke-linejoin="round"/>
    </marker>
  </defs>
  <rect width="1580" height="730" fill="#fff"/>
  <rect x="100" y="267" width="177" height="66" fill="#f3f2f9" stroke="#a9a3c9" stroke-width="2"/>
  <text x="188" y="309" text-anchor="middle" fill="#5d579d" font-size="25" font-weight="600">The trainer</text>
  <rect x="607" y="267" width="247" height="66" fill="#f3f2f9" stroke="#a9a3c9" stroke-width="2"/>
  <text x="730" y="309" text-anchor="middle" fill="#5d579d" font-size="25" font-weight="600">The orchestrator</text>
  <path d="M289 300 L593 300" fill="none" stroke="#a1a099" stroke-width="2" marker-end="url(#ha)"/>
  <text x="442" y="274" text-anchor="middle" fill="#2b2b29" font-size="22">one task, eight attempts</text>
  <rect x="974" y="147" width="220" height="66" fill="#eff5ea" stroke="#b8d7a6" stroke-width="2"/>
  <text x="1084" y="189" text-anchor="middle" fill="#5a912f" font-size="25" font-weight="600">MacBook Pro</text>
  <path d="M866 286 C930 286, 896 180, 960 180" fill="none" stroke="#a1a099" stroke-width="2" stroke-dasharray="7 7" marker-end="url(#ha)"/>
  <rect x="974" y="267" width="220" height="66" fill="#eff5ea" stroke="#b8d7a6" stroke-width="2"/>
  <text x="1084" y="309" text-anchor="middle" fill="#5a912f" font-size="25" font-weight="600">Mac Studio</text>
  <path d="M866 300 L960 300" fill="none" stroke="#a1a099" stroke-width="2" stroke-dasharray="7 7" marker-end="url(#ha)"/>
  <rect x="974" y="387" width="220" height="66" fill="#eff5ea" stroke="#b8d7a6" stroke-width="2"/>
  <text x="1084" y="429" text-anchor="middle" fill="#5a912f" font-size="25" font-weight="600">RTX box</text>
  <path d="M866 314 C930 314, 896 420, 960 420" fill="none" stroke="#a1a099" stroke-width="2" stroke-dasharray="7 7" marker-end="url(#ha)"/>
  <text x="1084" y="499" text-anchor="middle" fill="#2b2b29" font-size="22">placed on whichever machine is free</text>
  <path d="M1206 420 L1322 420 L1322 604 L188 604 L188 347" fill="none" stroke="#a1a099" stroke-width="2" marker-end="url(#ha)"/>
  <text x="636" y="648" text-anchor="middle" fill="#2b2b29" font-size="22">completions, and the token ids they sampled</text>
  <path d="M188 255 L188 96 L1084 96 L1084 133" fill="none" stroke="#a1a099" stroke-width="2" stroke-dasharray="7 7" marker-end="url(#ha)"/>
  <text x="636" y="62" text-anchor="middle" fill="#2b2b29" font-size="22">the adapter, straight to every machine, every two steps</text>
</svg>
