<svg xmlns="http://www.w3.org/2000/svg" viewBox="0 0 1194 1030" font-family="Avenir Next, Nunito, Segoe UI, Helvetica, Arial, sans-serif">
  <defs>
    <marker id="h" markerWidth="14" markerHeight="14" refX="11" refY="5" orient="auto" markerUnits="userSpaceOnUse">
      <path d="M1.5 1 L10 5 L1.5 9" fill="none" stroke="#a1a099" stroke-width="1.9" stroke-linecap="round" stroke-linejoin="round"/>
    </marker>
    <marker id="H" markerWidth="19" markerHeight="19" refX="13" refY="6.5" orient="auto" markerUnits="userSpaceOnUse">
      <path d="M2 1.5 L12.5 6.5 L2 11.5" fill="none" stroke="#a1a099" stroke-width="3" stroke-linecap="round" stroke-linejoin="round"/>
    </marker>
  </defs>
  <rect width="1194" height="1030" fill="#fff"/>
  <text x="620" y="172" text-anchor="middle" fill="#5a912f" font-size="25" font-weight="700">More people</text>
  <text x="997" y="446" text-anchor="middle" fill="#5a912f" font-size="25" font-weight="700">More machines</text>
  <text x="853" y="889" text-anchor="middle" fill="#5a912f" font-size="25" font-weight="700">Idle hours</text>
  <text x="387" y="889" text-anchor="middle" fill="#5a912f" font-size="25" font-weight="700">More training</text>
  <text x="243" y="446" text-anchor="middle" fill="#5a912f" font-size="25" font-weight="700">Answers kept</text>
  <path d="M728 179 A396 396 0 0 1 933 318" fill="none" stroke="#a1a099" stroke-width="4" marker-end="url(#H)"/>
  <path d="M1016 563 A396 396 0 0 1 930 806" fill="none" stroke="#a1a099" stroke-width="4" marker-end="url(#H)"/>
  <path d="M767 928 A396 396 0 0 1 496 936" fill="none" stroke="#a1a099" stroke-width="4" marker-end="url(#H)"/>
  <path d="M306 802 A396 396 0 0 1 224 561" fill="none" stroke="#a1a099" stroke-width="4" marker-end="url(#H)"/>
  <path d="M295 334 A396 396 0 0 1 503 182" fill="none" stroke="#a1a099" stroke-width="4" marker-end="url(#H)"/>
  <circle cx="620" cy="560" r="176" fill="#5d579d"/>
  <text x="620" y="550" text-anchor="middle" fill="#fff" font-size="34" font-weight="700" letter-spacing="0.5">A BETTER</text>
  <text x="620" y="592" text-anchor="middle" fill="#fff" font-size="34" font-weight="700" letter-spacing="0.5">MODEL</text>
  <path d="M407 491 A224 224 0 0 0 488 741" fill="none" stroke="#a1a099" stroke-width="2" stroke-dasharray="8 8" marker-end="url(#h)"/>
  <text x="566" y="800" text-anchor="middle" fill="#2b2b29" font-size="22">judged work,</text>
  <text x="566" y="828" text-anchor="middle" fill="#2b2b29" font-size="22">no new hardware</text>
  <rect x="76" y="55" width="356" height="66" rx="33" fill="#fbf0ed" stroke="#f0c5b6" stroke-width="2"/>
  <text x="254" y="97" text-anchor="middle" fill="#ad5130" font-size="25" font-weight="600">More systems connected</text>
  <path d="M446 112 L494 172" fill="none" stroke="#a1a099" stroke-width="2" marker-end="url(#h)"/>
</svg>
