<svg xmlns="http://www.w3.org/2000/svg" viewBox="0 0 1682 332" font-family="Avenir Next, Nunito, Segoe UI, Helvetica, Arial, sans-serif">
  <defs>
    <marker id="ha" markerWidth="13.3" markerHeight="13.3" refX="11" refY="7.0" orient="auto" markerUnits="userSpaceOnUse"><path d="M2 2.2 L11.5 7.0 L2 11.8" fill="none" stroke="#a1a099" stroke-width="1.9" stroke-linecap="round" stroke-linejoin="round"/></marker>
    <marker id="Ha" markerWidth="18.1" markerHeight="18.1" refX="15" refY="9.5" orient="auto" markerUnits="userSpaceOnUse"><path d="M2 3.0 L15.6 9.5 L2 16.0" fill="none" stroke="#a1a099" stroke-width="3.0" stroke-linecap="round" stroke-linejoin="round"/></marker>
    <marker id="hg" markerWidth="13.3" markerHeight="13.3" refX="11" refY="7.0" orient="auto" markerUnits="userSpaceOnUse"><path d="M2 2.2 L11.5 7.0 L2 11.8" fill="none" stroke="#5a912f" stroke-width="1.9" stroke-linecap="round" stroke-linejoin="round"/></marker>
    <marker id="Hg" markerWidth="18.1" markerHeight="18.1" refX="15" refY="9.5" orient="auto" markerUnits="userSpaceOnUse"><path d="M2 3.0 L15.6 9.5 L2 16.0" fill="none" stroke="#5a912f" stroke-width="3.0" stroke-linecap="round" stroke-linejoin="round"/></marker>
    <marker id="hp" markerWidth="13.3" markerHeight="13.3" refX="11" refY="7.0" orient="auto" markerUnits="userSpaceOnUse"><path d="M2 2.2 L11.5 7.0 L2 11.8" fill="none" stroke="#5d579d" stroke-width="1.9" stroke-linecap="round" stroke-linejoin="round"/></marker>
    <marker id="Hp" markerWidth="18.1" markerHeight="18.1" refX="15" refY="9.5" orient="auto" markerUnits="userSpaceOnUse"><path d="M2 3.0 L15.6 9.5 L2 16.0" fill="none" stroke="#5d579d" stroke-width="3.0" stroke-linecap="round" stroke-linejoin="round"/></marker>
    <marker id="hc" markerWidth="13.3" markerHeight="13.3" refX="11" refY="7.0" orient="auto" markerUnits="userSpaceOnUse"><path d="M2 2.2 L11.5 7.0 L2 11.8" fill="none" stroke="#ad5130" stroke-width="1.9" stroke-linecap="round" stroke-linejoin="round"/></marker>
    <marker id="Hc" markerWidth="18.1" markerHeight="18.1" refX="15" refY="9.5" orient="auto" markerUnits="userSpaceOnUse"><path d="M2 3.0 L15.6 9.5 L2 16.0" fill="none" stroke="#ad5130" stroke-width="3.0" stroke-linecap="round" stroke-linejoin="round"/></marker>
    <marker id="hk" markerWidth="13.3" markerHeight="13.3" refX="11" refY="7.0" orient="auto" markerUnits="userSpaceOnUse"><path d="M2 2.2 L11.5 7.0 L2 11.8" fill="none" stroke="#2b2b29" stroke-width="1.9" stroke-linecap="round" stroke-linejoin="round"/></marker>
    <marker id="Hk" markerWidth="18.1" markerHeight="18.1" refX="15" refY="9.5" orient="auto" markerUnits="userSpaceOnUse"><path d="M2 3.0 L15.6 9.5 L2 16.0" fill="none" stroke="#2b2b29" stroke-width="3.0" stroke-linecap="round" stroke-linejoin="round"/></marker>
  </defs>
  <rect width="1682" height="332" fill="#fff"/>
  <text x="70" y="34" text-anchor="start" fill="#2b2b29" font-size="23" font-weight="700">The verifier is ground truth, not a session</text>
  <text x="171" y="74" text-anchor="middle" fill="#2b2b29" font-size="23">one try</text>
  <text x="1203" y="74" text-anchor="middle" fill="#2b2b29" font-size="23">certified</text>
  <text x="620" y="164" text-anchor="middle" fill="#2b2b29" font-size="23">no fact to offer</text>
  <text x="919" y="142" text-anchor="middle" fill="#2b2b29" font-size="23">proposed only</text>
  <path d="M 120 92 C 171 92, 171 92, 222 92" fill="none" stroke="#a1a099" stroke-width="2" marker-end="url(#ha)"/>
  <path d="M 514 92 C 633 92, 633 92, 752 92" fill="none" stroke="#a1a099" stroke-width="2" marker-end="url(#ha)"/>
  <path d="M 964 92 C 1203 92, 1203 92, 1442 92" fill="none" stroke="#a1a099" stroke-width="2" marker-end="url(#ha)"/>
  <path d="M 514 92 C 572 92, 572 210, 629 210" fill="none" stroke="#a1a099" stroke-width="2" marker-end="url(#ha)"/>
  <path d="M 1087 210 C 920 210, 920 92, 752 92" fill="none" stroke="#a1a099" stroke-width="2" stroke-dasharray="7 7" marker-end="url(#ha)"/>
  <rect x="20" y="59" width="100" height="66" rx="33" fill="#fbf0ed" stroke="#f0c5b6" stroke-width="2"/>
  <text x="70" y="102" text-anchor="middle" fill="#ad5130" font-size="28" font-weight="600">job</text>
  <rect x="222" y="59" width="292" height="66" rx="0" fill="#eff5ea" stroke="#b8d7a6" stroke-width="2"/>
  <text x="368" y="83" text-anchor="middle" fill="#5a912f" font-size="28" font-weight="600">Hermes ACP</text>
  <text x="368" y="115" text-anchor="middle" fill="#2b2b29" font-size="23">qwen36-27b · draft</text>
  <rect x="752" y="59" width="212" height="66" rx="0" fill="#f3f2f9" stroke="#a9a3c9" stroke-width="2"/>
  <text x="858" y="102" text-anchor="middle" fill="#5d579d" font-size="28" font-weight="600">Codex exec</text>
  <text x="858" y="161" text-anchor="middle" fill="#2b2b29" font-size="21">test · schema — a fact</text>
  <rect x="629" y="177" width="458" height="66" rx="0" fill="#eff5ea" stroke="#b8d7a6" stroke-width="2"/>
  <text x="858" y="201" text-anchor="middle" fill="#5a912f" font-size="28" font-weight="600">consensus</text>
  <text x="858" y="233" text-anchor="middle" fill="#2b2b29" font-size="23">glm-4.6 over Codex · two tails</text>
  <text x="858" y="279" text-anchor="middle" fill="#2b2b29" font-size="21">two tails agree</text>
  <rect x="1442" y="59" width="145" height="66" rx="33" fill="#fbf0ed" stroke="#f0c5b6" stroke-width="2"/>
  <text x="1514" y="102" text-anchor="middle" fill="#ad5130" font-size="28" font-weight="600">answer</text>
</svg>